<svg width="152" height="19" viewBox="0 0 152 19" fill="none" xmlns="http://www.w3.org/2000/svg">
<path d="M6.888 15.309C4.634 15.309 2.919 14.623 1.743 13.251C0.581 11.879 0 10.073 0 7.833C0 5.481 0.651 3.633 1.953 2.289C3.255 0.945 5.04 0.273 7.308 0.273C7.812 0.273 8.596 0.329 9.66 0.440999H12.054V5.061H9.87L9.534 2.772C9.016 2.534 8.274 2.415 7.308 2.415C6.58 2.415 5.95 2.569 5.418 2.877C4.9 3.185 4.501 3.605 4.221 4.137C3.955 4.669 3.759 5.229 3.633 5.817C3.507 6.405 3.444 7.035 3.444 7.707C3.444 8.393 3.493 9.03 3.591 9.618C3.689 10.192 3.857 10.773 4.095 11.361C4.333 11.935 4.704 12.39 5.208 12.726C5.712 13.062 6.321 13.23 7.035 13.23C7.833 13.23 8.491 13.146 9.009 12.978V9.954H7.56V8.148H13.335V9.954H12.831C12.677 9.954 12.537 10.024 12.411 10.164C12.285 10.304 12.222 10.451 12.222 10.605V15.141H10.5C10.444 15.029 10.395 14.952 10.353 14.91L10.185 14.742C10.115 14.7 10.024 14.679 9.912 14.679C9.016 15.099 8.008 15.309 6.888 15.309Z" fill="white"/>
<path d="M24.4844 10.206H17.1134C17.2394 12.334 18.1914 13.398 19.9694 13.398C20.5434 13.398 21.0054 13.314 21.3554 13.146C21.7054 12.964 22.0484 12.649 22.3844 12.201H24.1274V14.217C22.9794 14.931 21.5094 15.288 19.7174 15.288C17.8834 15.288 16.4694 14.812 15.4754 13.86C14.4814 12.894 13.9844 11.501 13.9844 9.681C13.9844 7.945 14.4814 6.559 15.4754 5.523C16.4834 4.473 17.8274 3.948 19.5074 3.948C21.2574 3.948 22.5314 4.41 23.3294 5.334C24.1274 6.244 24.5264 7.588 24.5264 9.366C24.5264 9.618 24.5194 9.793 24.5054 9.891C24.4914 9.989 24.4844 10.094 24.4844 10.206ZM19.5074 5.775C18.1494 5.775 17.3654 6.671 17.1554 8.463H21.4604C21.4324 8.071 21.3904 7.742 21.3344 7.476C21.2784 7.196 21.1874 6.916 21.0614 6.636C20.9354 6.356 20.7394 6.146 20.4734 6.006C20.2214 5.852 19.8994 5.775 19.5074 5.775Z" fill="white"/>
<path d="M30.8546 15.288C29.1606 15.288 27.7676 14.77 26.6756 13.734C25.5976 12.698 25.0586 11.347 25.0586 9.681C25.0586 7.987 25.6046 6.608 26.6966 5.544C27.7886 4.48 29.1746 3.948 30.8546 3.948C32.5766 3.948 33.9696 4.487 35.0336 5.565C36.1116 6.629 36.6506 8.001 36.6506 9.681C36.6506 11.375 36.1046 12.733 35.0126 13.755C33.9206 14.777 32.5346 15.288 30.8546 15.288ZM30.8546 13.356C31.7926 13.356 32.4716 12.999 32.8916 12.285C33.3256 11.571 33.5426 10.71 33.5426 9.702C33.5426 8.68 33.3326 7.805 32.9126 7.077C32.4926 6.335 31.8066 5.964 30.8546 5.964C29.9166 5.964 29.2306 6.335 28.7966 7.077C28.3766 7.819 28.1666 8.694 28.1666 9.702C28.1666 10.332 28.2436 10.906 28.3976 11.424C28.5516 11.942 28.8386 12.397 29.2586 12.789C29.6786 13.167 30.2106 13.356 30.8546 13.356Z" fill="white"/>
<path d="M41.2781 18.816C38.1281 18.816 36.5531 17.969 36.5531 16.275C36.5531 15.477 36.9661 14.819 37.7921 14.301C37.9461 14.217 38.1771 14.105 38.4851 13.965C37.8831 13.643 37.5821 13.111 37.5821 12.369C37.5821 11.515 38.0091 10.808 38.8631 10.248C37.8971 9.576 37.4141 8.673 37.4141 7.539C37.4141 6.349 37.8481 5.453 38.7161 4.851C39.5981 4.249 40.6481 3.948 41.8661 3.948C42.3421 3.948 42.8391 4.004 43.3571 4.116H47.2211V5.964H46.5701C46.4861 5.964 46.3881 5.999 46.2761 6.069C46.1641 6.153 46.1081 6.244 46.1081 6.342C46.2481 6.72 46.3181 7.119 46.3181 7.539C46.3181 8.701 45.8771 9.569 44.9951 10.143C44.1131 10.717 43.0701 11.004 41.8661 11.004C41.1521 11.004 40.4801 10.906 39.8501 10.71C39.7941 11.018 39.7661 11.256 39.7661 11.424C39.7661 11.872 40.0741 12.096 40.6901 12.096H43.7561C44.8621 12.096 45.7161 12.299 46.3181 12.705C46.9201 13.097 47.2211 13.811 47.2211 14.847C47.2211 17.493 45.2401 18.816 41.2781 18.816ZM41.4041 17.01C43.4201 17.01 44.4281 16.527 44.4281 15.561C44.4281 15.239 44.3231 14.994 44.1131 14.826C43.8751 14.672 43.4901 14.595 42.9581 14.595H39.2201C39.1361 14.777 39.0941 15.099 39.0941 15.561C39.0941 15.869 39.1571 16.128 39.2831 16.338C39.4231 16.548 39.6191 16.695 39.8711 16.779C40.1231 16.877 40.3611 16.94 40.5851 16.968C40.8231 16.996 41.0961 17.01 41.4041 17.01ZM41.8661 9.429C42.4401 9.429 42.8671 9.261 43.1471 8.925C43.4411 8.575 43.5881 8.113 43.5881 7.539C43.5881 6.279 43.0141 5.649 41.8661 5.649C41.2921 5.649 40.8581 5.824 40.5641 6.174C40.2841 6.51 40.1441 6.965 40.1441 7.539C40.1441 8.113 40.2911 8.575 40.5851 8.925C40.8791 9.261 41.3061 9.429 41.8661 9.429Z" fill="white"/>
<path d="M47.6562 15.141V13.398H48.3912C48.5312 13.398 48.6502 13.335 48.7482 13.209C48.8602 13.097 48.9162 12.985 48.9162 12.873V6.531C48.9162 6.433 48.8602 6.307 48.7482 6.153C48.6362 6.027 48.5172 5.964 48.3912 5.964H47.5722V4.116H51.3312C51.5272 4.116 51.6742 4.221 51.7722 4.431C51.8842 4.641 51.9472 5.068 51.9612 5.712C52.8572 4.578 53.8722 4.011 55.0062 4.011C55.2022 4.011 55.4262 4.046 55.6782 4.116V6.384H55.1532C53.8792 6.384 52.8222 6.608 51.9822 7.056V13.398H53.5152V15.141H47.6562Z" fill="white"/>
<path d="M59.1837 15.267C57.5317 15.267 56.4467 14.637 55.9287 13.377C55.7467 12.999 55.6557 12.523 55.6557 11.949C55.6557 10.773 56.0687 9.919 56.8947 9.387C57.7347 8.855 58.7707 8.589 60.0027 8.589C60.7447 8.589 61.4937 8.673 62.2497 8.841V7.686C62.2497 6.594 61.6127 6.048 60.3387 6.048C59.8067 6.048 59.3517 6.125 58.9737 6.279C58.6097 6.419 58.2177 6.671 57.7977 7.035H56.3907V4.788C57.6507 4.228 59.1697 3.948 60.9477 3.948C61.6057 3.948 62.1797 3.997 62.6697 4.095C63.1737 4.193 63.6287 4.368 64.0347 4.62C64.4547 4.858 64.7697 5.215 64.9797 5.691C65.2037 6.153 65.3157 6.72 65.3157 7.392V12.873C65.3157 12.999 65.3717 13.118 65.4837 13.23C65.5957 13.342 65.7147 13.398 65.8407 13.398H66.4287V14.868C66.2187 14.994 65.9597 15.099 65.6517 15.183C65.3017 15.253 64.9447 15.288 64.5807 15.288C63.4187 15.288 62.6837 14.826 62.3757 13.902C61.6477 14.812 60.5837 15.267 59.1837 15.267ZM60.3177 13.461C60.9757 13.461 61.6197 13.202 62.2497 12.684V10.332C61.7737 10.248 61.2347 10.206 60.6327 10.206C59.3027 10.206 58.6377 10.745 58.6377 11.823C58.6377 12.915 59.1977 13.461 60.3177 13.461Z" fill="white"/>
<path d="M66.7265 5.964V4.116H68.0285V3.276C68.0285 1.246 69.1905 0.231 71.5145 0.231C72.2005 0.231 72.7815 0.329 73.2575 0.524999V2.247H72.6275C72.3335 2.247 72.1235 2.254 71.9975 2.268C71.8715 2.282 71.7105 2.331 71.5145 2.415C71.2345 2.569 71.0945 2.891 71.0945 3.381V4.116H76.6805C77.0165 4.116 77.1845 4.508 77.1845 5.292V12.873C77.1845 12.999 77.2405 13.118 77.3525 13.23C77.4645 13.342 77.5835 13.398 77.7095 13.398H78.5075V15.141H73.2575V13.398H74.0975V5.964H71.0945V13.398H71.9345V15.141H66.8105V13.398H67.5035C67.6435 13.398 67.7625 13.335 67.8605 13.209C67.9725 13.097 68.0285 12.985 68.0285 12.873V5.964H66.7265ZM76.7645 2.793C76.4425 3.101 76.0575 3.255 75.6095 3.255C75.1615 3.255 74.7695 3.101 74.4335 2.793C74.1115 2.471 73.9505 2.086 73.9505 1.638C73.9505 1.176 74.1115 0.790999 74.4335 0.483C74.7555 0.161 75.1475 0 75.6095 0C76.0715 0 76.4635 0.161 76.7855 0.483C77.1075 0.790999 77.2685 1.176 77.2685 1.638C77.2685 2.086 77.1005 2.471 76.7645 2.793Z" fill="white"/>
<path d="M82.9431 15.267C81.4451 15.267 80.1151 15.071 78.9531 14.679V12.201H80.7171C80.8431 12.607 81.1231 12.922 81.5571 13.146C81.9911 13.356 82.4461 13.461 82.9221 13.461C83.4261 13.461 83.8671 13.363 84.2451 13.167C84.6231 12.957 84.8121 12.621 84.8121 12.159C84.8121 11.753 84.6581 11.445 84.3501 11.235C84.0141 11.039 83.4191 10.878 82.5651 10.752C81.4171 10.584 80.5491 10.262 79.9611 9.786C79.3731 9.296 79.0791 8.512 79.0791 7.434C79.0791 6.244 79.5061 5.376 80.3601 4.83C81.2281 4.27 82.2991 3.99 83.5731 3.99C85.1131 3.99 86.3731 4.151 87.3531 4.473V6.909H85.6521C85.2181 6.195 84.4901 5.838 83.4681 5.838C83.0061 5.838 82.5931 5.929 82.2291 6.111C81.8791 6.279 81.7041 6.573 81.7041 6.993C81.7041 7.147 81.7391 7.294 81.8091 7.434C82.0051 7.868 82.7261 8.169 83.9721 8.337C84.6161 8.435 85.1341 8.547 85.5261 8.673C85.9321 8.785 86.3171 8.96 86.6811 9.198C87.0451 9.436 87.3111 9.765 87.4791 10.185C87.6471 10.591 87.7311 11.095 87.7311 11.697C87.7311 12.369 87.5981 12.95 87.3321 13.44C87.0661 13.916 86.6951 14.287 86.2191 14.553C85.7571 14.805 85.2531 14.987 84.7071 15.099C84.1751 15.211 83.5871 15.267 82.9431 15.267Z" fill="white"/>
<path d="M88.1591 15.141V13.398H88.8941C89.0341 13.398 89.1532 13.335 89.2512 13.209C89.3632 13.097 89.4192 12.985 89.4192 12.873V2.814C89.4192 2.716 89.3632 2.59 89.2512 2.436C89.1532 2.31 89.0341 2.247 88.8941 2.247H88.0961V0.440999H91.9602C92.3102 0.440999 92.4851 0.679 92.4851 1.155V9.513L95.2571 6.804C95.4251 6.622 95.4951 6.433 95.4671 6.237C95.4251 6.055 95.2991 5.964 95.0891 5.964H94.6692V4.116H99.6461V5.964H99.0582C98.9182 5.964 98.7641 5.999 98.5961 6.069C98.4281 6.153 98.2881 6.251 98.1761 6.363L95.8242 8.652L98.7011 12.81C98.9671 13.202 99.2401 13.398 99.5201 13.398H99.7301V15.141H96.7271L93.7242 10.689L92.4851 11.886V13.398H93.5561V15.141H88.1591Z" fill="white"/>
<path d="M103.705 15.141V13.398H104.503C104.643 13.398 104.776 13.328 104.902 13.188C105.042 13.034 105.112 12.887 105.112 12.747V2.898C105.112 2.744 105.049 2.597 104.923 2.457C104.797 2.317 104.657 2.247 104.503 2.247H103.705V0.440999H110.047V2.247H108.388V6.699H113.785V2.247H112.126V0.440999H118.489V2.247H117.67C117.516 2.247 117.376 2.317 117.25 2.457C117.124 2.597 117.061 2.744 117.061 2.898V12.747C117.061 12.887 117.124 13.034 117.25 13.188C117.39 13.328 117.53 13.398 117.67 13.398H118.489V15.141H112.126V13.398H113.785V8.568H108.388V13.398H110.047V15.141H103.705Z" fill="white"/>
<path d="M122.491 15.267C120.839 15.267 119.754 14.637 119.236 13.377C119.054 12.999 118.963 12.523 118.963 11.949C118.963 10.773 119.376 9.919 120.202 9.387C121.042 8.855 122.078 8.589 123.31 8.589C124.052 8.589 124.801 8.673 125.557 8.841V7.686C125.557 6.594 124.92 6.048 123.646 6.048C123.114 6.048 122.659 6.125 122.281 6.279C121.917 6.419 121.525 6.671 121.105 7.035H119.698V4.788C120.958 4.228 122.477 3.948 124.255 3.948C124.913 3.948 125.487 3.997 125.977 4.095C126.481 4.193 126.936 4.368 127.342 4.62C127.762 4.858 128.077 5.215 128.287 5.691C128.511 6.153 128.623 6.72 128.623 7.392V12.873C128.623 12.999 128.679 13.118 128.791 13.23C128.903 13.342 129.022 13.398 129.148 13.398H129.736V14.868C129.526 14.994 129.267 15.099 128.959 15.183C128.609 15.253 128.252 15.288 127.888 15.288C126.726 15.288 125.991 14.826 125.683 13.902C124.955 14.812 123.891 15.267 122.491 15.267ZM123.625 13.461C124.283 13.461 124.927 13.202 125.557 12.684V10.332C125.081 10.248 124.542 10.206 123.94 10.206C122.61 10.206 121.945 10.745 121.945 11.823C121.945 12.915 122.505 13.461 123.625 13.461Z" fill="white"/>
<path d="M133.913 15.141L130.469 6.552C130.329 6.16 130.105 5.964 129.797 5.964H129.398V4.116H134.753V5.964H133.367L135.614 12.264H135.656L137.441 7.35C137.581 6.944 137.644 6.608 137.63 6.342C137.616 6.09 137.371 5.964 136.895 5.964H136.559V4.116H141.221V5.964H140.864C140.514 5.964 140.248 6.181 140.066 6.615L136.559 15.141H133.913Z" fill="white"/>
<path d="M151.715 10.206H144.344C144.47 12.334 145.422 13.398 147.2 13.398C147.774 13.398 148.236 13.314 148.586 13.146C148.936 12.964 149.279 12.649 149.615 12.201H151.358V14.217C150.21 14.931 148.74 15.288 146.948 15.288C145.114 15.288 143.7 14.812 142.706 13.86C141.712 12.894 141.215 11.501 141.215 9.681C141.215 7.945 141.712 6.559 142.706 5.523C143.714 4.473 145.058 3.948 146.738 3.948C148.488 3.948 149.762 4.41 150.56 5.334C151.358 6.244 151.757 7.588 151.757 9.366C151.757 9.618 151.75 9.793 151.736 9.891C151.722 9.989 151.715 10.094 151.715 10.206ZM146.738 5.775C145.38 5.775 144.596 6.671 144.386 8.463H148.691C148.663 8.071 148.621 7.742 148.565 7.476C148.509 7.196 148.418 6.916 148.292 6.636C148.166 6.356 147.97 6.146 147.704 6.006C147.452 5.852 147.13 5.775 146.738 5.775Z" fill="white"/>
</svg>
